<svg width="50" height="64" viewBox="0 0 50 64" fill="none" xmlns="http://www.w3.org/2000/svg">
<path fill-rule="evenodd" clip-rule="evenodd" d="M50 40.7896C50 55.9964 41.3829 64 24.9826 64C8.6171 64 0 55.9964 0 40.7896C0 31.6427 0.416956 23.4104 1.04239 17.7508C2.43224 5.25949 9.5205 0 24.9826 0C40.4795 0 47.5678 5.25949 48.9229 17.7508C49.5483 23.4104 50 31.6427 50 40.7896ZM24.3505 5.63777C26.8289 5.28115 29.3618 5.33236 31.7235 5.92251C38.6134 7.08499 41.4295 10.5739 42.2863 17.8651H42.2244C42.4007 18.7733 42.5315 19.739 42.6125 20.7647C42.651 21.2518 42.6783 21.7526 42.6939 22.2671H42.7033C43.155 27.5266 43.3635 33.9866 43.3635 40.7896C43.3635 52.5377 37.1091 58.569 24.9826 58.569C12.8562 58.569 6.60181 52.5377 6.60181 40.7896C6.60181 35.4109 6.75385 30.2466 7.02358 25.7206C6.99244 24.9479 7.02889 24.1482 7.13917 23.323C7.18782 21.2976 7.41577 19.4836 7.79583 17.8651H7.71369C8.704 9.40929 12.3121 6.08877 21.8363 5.54288C22.5365 5.40584 23.3662 5.42529 24.3505 5.63777Z" fill="#FF9F9F"/>
<rect x="21.3386" y="11.2269" width="6.66832" height="13.7218" rx="3.33416" fill="#FF9F9F"/>
</svg>
