<svg width="21" height="21" viewBox="0 0 21 21" fill="none" xmlns="http://www.w3.org/2000/svg">
<path d="M10.3182 0C7.81287 0 5.47092 1.2671 4.68663 3.82035C4.67574 3.85846 4.67574 3.86798 4.66485 3.90609L6.46216 5.47805C6.46216 5.42089 6.47305 5.3542 6.47305 5.29704C6.66912 3.05818 8.30305 1.81014 10.3182 1.81014C12.4532 1.81014 14.1961 3.17251 14.1961 5.76387V8.23137L9.62108 8.2409L18.0739 15.6339V10.2987C18.0739 9.06022 17.5075 8.40286 16.3528 8.26948V5.94488C16.3528 1.93399 13.4445 0 10.3182 0ZM19.5226 20.7785C19.8603 21.0738 20.4159 21.0738 20.7426 20.7785C21.0803 20.4736 21.0912 19.9973 20.7426 19.7019L1.48415 2.86764C1.14647 2.5723 0.590935 2.56278 0.253258 2.86764C-0.0844193 3.15345 -0.0844193 3.64886 0.253258 3.93467L19.5226 20.7785ZM4.80645 19.7782H15.9607C16.1459 19.7782 16.3093 19.7686 16.4509 19.7496L3.57557 8.47907C2.85664 8.80299 2.57343 9.4032 2.57343 10.375V17.7013C2.57343 19.1303 3.31414 19.7782 4.80645 19.7782Z" fill="#848484"/>
</svg>
