<svg width="70" height="84" viewBox="0 0 70 84" fill="none" xmlns="http://www.w3.org/2000/svg">
    <g filter="url(#filter0_d_35_51)">
        <path fill-rule="evenodd" clip-rule="evenodd" d="M60 50.7896C60 65.9964 51.3829 74 34.9826 74C18.6171 74 10 65.9964 10 50.7896C10 41.6427 10.417 33.4104 11.0424 27.7508C12.4322 15.2595 19.5205 10 34.9826 10C50.4795 10 57.5678 15.2595 58.9229 27.7508C59.5483 33.4104 60 41.6427 60 50.7896ZM34.3505 15.6378C36.8289 15.2811 39.3618 15.3324 41.7235 15.9225C48.6134 17.085 51.4295 20.5739 52.2863 27.8651H52.2244C52.4007 28.7733 52.5315 29.739 52.6125 30.7647C52.651 31.2518 52.6783 31.7526 52.6939 32.2671H52.7033C53.155 37.5266 53.3634 43.9866 53.3634 50.7896C53.3634 62.5377 47.1091 68.569 34.9826 68.569C22.8562 68.569 16.6018 62.5377 16.6018 50.7896C16.6018 45.4109 16.7538 40.2466 17.0236 35.7206C16.9924 34.9479 17.0289 34.1482 17.1392 33.323C17.1878 31.2976 17.4158 29.4836 17.7958 27.8651H17.7137C18.704 19.4093 22.3121 16.0888 31.8363 15.5429C32.5365 15.4058 33.3662 15.4253 34.3505 15.6378Z" fill="#FF9F9F"/>
        <rect x="31.3386" y="21.2269" width="6.66832" height="13.7218" rx="3.33416" fill="#FF9F9F"/>
    </g>
    <defs>
        <filter id="filter0_d_35_51" x="0" y="0" width="70" height="84" filterUnits="userSpaceOnUse" color-interpolation-filters="sRGB">
            <feFlood flood-opacity="0" result="BackgroundImageFix"/>
            <feColorMatrix in="SourceAlpha" type="matrix" values="0 0 0 0 0 0 0 0 0 0 0 0 0 0 0 0 0 0 127 0" result="hardAlpha"/>
            <feOffset/>
            <feGaussianBlur stdDeviation="5"/>
            <feComposite in2="hardAlpha" operator="out"/>
            <feColorMatrix type="matrix" values="0 0 0 0 0.721569 0 0 0 0 0.462745 0 0 0 0 0.470588 0 0 0 1 0"/>
            <feBlend mode="normal" in2="BackgroundImageFix" result="effect1_dropShadow_35_51"/>
            <feBlend mode="normal" in="SourceGraphic" in2="effect1_dropShadow_35_51" result="shape"/>
        </filter>
    </defs>
</svg>
