<svg width="50" height="50" viewBox="0 0 50 50" fill="none" xmlns="http://www.w3.org/2000/svg">
<path d="M45.0781 11.9922L26.2109 1.13281C25.8984 0.9375 25.4688 0.859375 25 0.859375C24.5312 0.859375 24.1016 0.976563 23.7891 1.13281L5.03906 12.0312C4.375 12.4219 3.90625 13.3984 3.90625 14.1406V35.8984C3.90625 36.3281 3.98437 36.8359 4.29688 37.2656L46.0156 13.0469C45.7812 12.5781 45.4297 12.2266 45.0781 11.9922Z" fill="#659AD3"/>
<path d="M4.17969 37.2266C4.375 37.5391 4.64844 37.8125 4.92188 37.9688L23.75 48.8672C24.0625 49.0625 24.4922 49.1406 24.9609 49.1406C25.4297 49.1406 25.8594 49.0234 26.1719 48.8672L44.9219 37.9688C45.5859 37.5781 46.0547 36.6016 46.0547 35.8594V14.1016C46.0547 13.75 46.0156 13.3594 45.8203 13.0078L4.17969 37.2266Z" fill="#03599C"/>
<path d="M33.3203 29.7266C31.6797 32.6172 28.5547 34.5703 25 34.5703C19.7266 34.5703 15.4297 30.2734 15.4297 25C15.4297 19.7266 19.7266 15.4297 25 15.4297C28.5547 15.4297 31.6797 17.3828 33.3203 20.3125L38.3984 17.3828C35.7422 12.7344 30.7422 9.57031 25 9.57031C16.4844 9.57031 9.57031 16.4844 9.57031 25C9.57031 33.5156 16.4844 40.4297 25 40.4297C30.7031 40.4297 35.7031 37.3047 38.3594 32.6953L33.3203 29.7266Z" fill="white"/>
</svg>
