<svg width="50" height="50" viewBox="0 0 50 50" fill="none" xmlns="http://www.w3.org/2000/svg">
<path d="M25.0016 10.0008C18.3348 10.0008 14.1696 13.3328 12.5016 19.9996C15.0008 16.6672 17.9184 15.4176 21.2508 16.2508C23.1535 16.725 24.5133 18.1047 26.0192 19.6336C28.4699 22.1207 31.3067 25 37.5016 25C44.168 25 48.3336 21.6676 50.0016 14.9992C47.502 18.3336 44.5848 19.5832 41.252 18.75C39.3496 18.2754 37.9914 16.8961 36.4836 15.3672C34.0344 12.8801 31.1985 10.0008 25.0016 10.0008ZM12.5016 25C5.83518 25 1.66956 28.3324 0.00158691 35.0008C2.50081 31.6664 5.41799 30.4168 8.75081 31.25C10.6535 31.7246 12.0133 33.1039 13.5192 34.6328C15.9699 37.1199 18.8067 39.9992 25.0016 39.9992C31.668 39.9992 35.8336 36.6672 37.5016 30.0004C35.002 33.3328 32.0848 34.5824 28.752 33.7492C26.8496 33.275 25.4914 31.8953 23.9836 30.3664C21.5344 27.8793 18.6985 25 12.5016 25Z" fill="#38B2AC"/>
</svg>
