<svg viewBox="0 0 763 683" xmlns="http://www.w3.org/2000/svg">
<path d="M295.5 524.865C208.252 567.453 132 620.5 132 620.5H101C101 620.5 149.087 522.399 205.267 408.5M295.5 524.865C295.5 524.865 252.009 548 212.5 511C171.5 458 205.267 408.5 205.267 408.5M295.5 524.865C356.162 495.254 422.14 483.155 471.5 485M205.267 408.5C245.444 327.045 275.174 262.511 309 195M446.5 195C470.688 242.44 489.01 275.755 518.582 334.5C524.966 347.182 531.355 359.883 537.696 372.5M446.5 195C414.313 131.871 380.325 63 379 63C377.675 63 340.631 131.871 309 195M446.5 195C446.5 195 426.727 156 379 156C331.273 156 309 195 309 195M471.5 485C481.987 485.392 491.724 486.976 500.5 489.956C610 527.137 638 620.5 638 620.5H661.919C661.919 620.5 602.241 500.906 537.696 372.5M471.5 485C471.5 485 511.5 480 532 447.5C552.5 415 537.696 372.5 537.696 372.5" stroke="oklch(0.58 0.22 25)" stroke-width="125" fill="none" stroke-linecap="round" stroke-linejoin="round"/>
</svg>
